<svg width="258" height="66" viewBox="0 0 258 66" fill="none" xmlns="http://www.w3.org/2000/svg">
<path fill-rule="evenodd" clip-rule="evenodd" d="M8 0.5C3.58172 0.5 0 4.08172 0 8.5V57.5C0 61.9183 3.58172 65.5 8 65.5H57C61.4183 65.5 65 61.9183 65 57.5V8.5C65 4.08172 61.4183 0.5 57 0.5H8ZM41.0306 42.0723C42.4088 45.6485 46.4029 47.4254 49.9592 46.0335C53.5144 44.6485 55.2769 40.6244 53.9045 37.0553C52.5228 33.4792 48.5357 31.7174 44.9794 33.0883C42.4518 34.0847 39.6002 32.8246 38.6284 30.2753C37.6403 27.7562 38.9024 24.893 41.4323 23.9083C44.9794 22.5198 46.7407 18.5027 45.3672 14.9371C43.9844 11.3563 39.9833 9.58634 36.4235 10.9713C32.8741 12.3656 31.1105 16.378 32.484 19.9401C33.4674 22.4802 32.2123 25.3434 29.6917 26.3258C27.1617 27.3117 24.3217 26.0481 23.3476 23.5139C21.9729 19.9401 17.9684 18.169 14.4167 19.5493C10.8592 20.9459 9.08856 24.956 10.4691 28.5298C11.8461 32.1071 15.8471 33.8712 19.4011 32.4851C21.9265 31.5039 24.7757 32.757 25.7475 35.3028C26.7333 37.8499 25.47 40.6956 22.9494 41.6826C19.3977 43.0653 17.6294 47.0871 19.0087 50.6492C20.3927 54.2311 24.3926 55.9988 27.9466 54.622C31.4994 53.2324 33.2654 49.2222 31.8803 45.6426C30.8992 43.1026 32.1578 40.2452 34.6808 39.2686C37.2142 38.2652 40.0588 39.5416 41.0306 42.0723Z" fill="white"/>
<path d="M103.355 29.5199L97.9801 20.1625H92.2024V29.5199H89V7.53076H100.605C102.262 7.55069 103.845 8.22322 105.017 9.40465C106.188 10.5861 106.855 12.1827 106.875 13.8534C106.886 15.3511 106.345 16.7994 105.357 17.9179C104.414 19.0698 103.088 19.8369 101.626 20.0766L107.059 29.5199H103.355ZM103.668 13.8308C103.674 13.4221 103.598 13.0165 103.444 12.6384C103.29 12.2603 103.062 11.9177 102.772 11.6314C102.493 11.3404 102.157 11.1101 101.786 10.9548C101.414 10.7995 101.016 10.7224 100.614 10.7282H92.2024V16.9334H100.605C101.007 16.9392 101.405 16.8621 101.777 16.7068C102.148 16.5515 102.484 16.3212 102.763 16.0302C103.055 15.7451 103.286 15.403 103.441 15.0248C103.597 14.6465 103.674 14.2402 103.668 13.8308Z" fill="white"/>
<path d="M127.331 21.2557C127.33 21.7946 127.283 22.3324 127.192 22.8634H113.698C114.041 23.9548 114.724 24.9052 115.646 25.5731C116.551 26.2544 117.652 26.6206 118.781 26.6164C120.677 26.6164 122.208 25.7267 123.372 23.9473L126.059 25.7267C124.268 28.4364 121.84 29.7912 118.777 29.7912C117.657 29.8086 116.546 29.5971 115.51 29.1694C114.474 28.7417 113.534 28.1068 112.748 27.3028C111.155 25.694 110.26 23.5134 110.26 21.2399C110.26 18.9663 111.155 16.7858 112.748 15.1769C113.943 13.9745 115.464 13.1557 117.119 12.8238C118.775 12.4919 120.491 12.6617 122.05 13.3119C123.61 13.9621 124.944 15.0636 125.884 16.4773C126.824 17.891 127.327 19.5537 127.331 21.2557ZM123.878 19.6795C123.541 18.5696 122.852 17.6019 121.916 16.9247C121.012 16.2409 119.912 15.8713 118.781 15.8713C117.651 15.8713 116.551 16.2409 115.646 16.9247C114.727 17.6057 114.045 18.5619 113.698 19.657L123.878 19.6795Z" fill="white"/>
<path d="M147.803 27.6911C147.814 28.8127 147.595 29.9246 147.16 30.9567C146.724 31.9889 146.082 32.919 145.272 33.6885C143.986 35.0309 142.292 35.9016 140.459 36.1626C138.626 36.4236 136.759 36.0599 135.155 35.1292C133.89 34.3795 132.806 33.357 131.979 32.135L134.666 30.3556C135.849 32.1169 137.381 32.9975 139.262 32.9975C139.969 33.0278 140.675 32.9026 141.33 32.6304C141.985 32.3583 142.574 31.9457 143.055 31.4214C143.975 30.3488 144.508 28.9946 144.569 27.5782C143.065 29.016 141.065 29.8066 138.993 29.782C137.896 29.7993 136.809 29.5839 135.8 29.1497C134.792 28.7156 133.885 28.0724 133.139 27.262C132.363 26.4715 131.751 25.5334 131.339 24.5022C130.926 23.4711 130.72 22.3675 130.734 21.2555C130.716 20.137 130.92 19.0261 131.333 17.9878C131.746 16.9495 132.36 16.0047 133.139 15.2084C133.881 14.3904 134.786 13.7402 135.795 13.3004C136.804 12.8606 137.894 12.6412 138.993 12.6568C141.088 12.6392 143.105 13.4574 144.605 14.9329V12.9007H147.803V27.6911ZM144.605 21.2555C144.615 20.0003 144.193 18.7802 143.411 17.8038C142.628 16.8274 141.534 16.1552 140.315 15.902C139.095 15.6487 137.827 15.8302 136.725 16.4154C135.624 17.0005 134.758 17.9531 134.276 19.1104C133.793 20.2677 133.724 21.5579 134.081 22.7607C134.437 23.9636 135.196 25.0044 136.229 25.7055C137.262 26.4065 138.504 26.7243 139.743 26.6046C140.982 26.4849 142.142 25.9351 143.024 25.0491C143.531 24.5594 143.932 23.9701 144.204 23.3176C144.476 22.6651 144.613 21.9633 144.605 21.2555Z" fill="white"/>
<path d="M153.875 10.7148V7.55347H157.077V10.7148H153.875ZM153.875 29.52V12.9006H157.077V29.52H153.875Z" fill="white"/>
<path d="M178.88 21.2558C178.885 22.6728 178.542 24.0691 177.884 25.3207C177.225 26.5723 176.27 27.6405 175.103 28.4306C173.937 29.2207 172.595 29.7082 171.196 29.8498C169.798 29.9914 168.387 29.7827 167.088 29.2423C165.789 28.7019 164.642 27.8465 163.749 26.752C162.857 25.6575 162.246 24.3577 161.971 22.9681C161.697 21.5784 161.766 20.1419 162.174 18.7859C162.582 17.43 163.316 16.1965 164.31 15.1951C165.504 13.9962 167.022 13.1798 168.674 12.8488C170.326 12.5177 172.039 12.6867 173.596 13.3345C175.153 13.9823 176.486 15.0799 177.426 16.4894C178.366 17.8989 178.872 19.5572 178.88 21.2558ZM175.66 21.2558C175.669 20.0004 175.246 18.7807 174.463 17.8049C173.679 16.8291 172.584 16.1579 171.365 15.9058C170.145 15.6537 168.876 15.8363 167.775 16.4226C166.674 17.0089 165.809 17.9624 165.328 19.1202C164.847 20.2781 164.779 21.5685 165.137 22.771C165.494 23.9736 166.255 25.0136 167.289 25.7136C168.322 26.4136 169.565 26.73 170.804 26.6088C172.043 26.4877 173.202 25.9365 174.083 25.0494C174.589 24.5594 174.99 23.97 175.262 23.3175C175.533 22.6649 175.668 21.9632 175.66 21.2558Z" fill="white"/>
<path d="M194.813 29.5201V19.9007C194.817 19.3713 194.715 18.8465 194.51 18.3587C194.306 17.8709 194.005 17.4305 193.626 17.0646C193.265 16.6812 192.83 16.3774 192.348 16.1722C191.865 15.967 191.346 15.8649 190.822 15.8723C189.766 15.8829 188.756 16.3109 188.01 17.0642C187.264 17.8175 186.841 18.836 186.831 19.9007V29.5201H183.629V12.9007H186.831V14.4813C188.049 13.2954 189.68 12.6386 191.373 12.6523C192.288 12.6432 193.193 12.8413 194.021 13.2322C194.85 13.623 195.581 14.1965 196.161 14.9104C197.378 16.2801 198.04 18.0615 198.015 19.9007V29.5201H194.813Z" fill="white"/>
<path d="M219.831 21.2557C219.832 21.7947 219.785 22.3327 219.692 22.8635H206.198C206.544 23.9543 207.229 24.9041 208.15 25.5732C209.055 26.256 210.156 26.6223 211.286 26.6164C213.179 26.6164 214.709 25.7267 215.876 23.9474L218.564 25.7267C216.772 28.4364 214.346 29.7913 211.286 29.7913C210.169 29.7954 209.063 29.5772 208.03 29.1492C206.998 28.7211 206.059 28.0917 205.269 27.2969C204.478 26.5022 203.851 25.5578 203.423 24.518C202.995 23.4782 202.775 22.3634 202.776 21.2377C202.827 18.9895 203.749 16.8507 205.343 15.2789C206.938 13.7071 209.08 12.827 211.31 12.827C213.54 12.827 215.682 13.7071 217.277 15.2789C218.872 16.8507 219.794 18.9895 219.845 21.2377L219.831 21.2557ZM216.383 19.6796C216.04 18.5808 215.355 17.6227 214.43 16.9473C213.525 16.2635 212.425 15.8939 211.295 15.8939C210.164 15.8939 209.064 16.2635 208.159 16.9473C207.239 17.6281 206.556 18.5842 206.207 19.6796H216.383Z" fill="white"/>
<path d="M89 58.1974V36.2083H92.2024V55.018H102.871V58.1793L89 58.1974Z" fill="white"/>
<path d="M122 49.9149C122.014 51.0448 121.798 52.1656 121.367 53.2086C120.935 54.2515 120.297 55.1947 119.492 55.9801C117.883 57.5746 115.717 58.4681 113.461 58.4681C111.205 58.4681 109.039 57.5746 107.43 55.9801C106.451 54.9783 105.731 53.749 105.333 52.4006C104.936 51.0521 104.873 49.6257 105.151 48.2471C105.429 46.8685 106.038 45.5799 106.926 44.4948C107.814 43.4097 108.953 42.5614 110.243 42.0246C111.532 41.4878 112.933 41.2789 114.322 41.4163C115.71 41.5537 117.044 42.0333 118.205 42.8127C119.367 43.5922 120.32 44.6476 120.982 45.8861C121.644 47.1246 121.993 48.5081 122 49.9149ZM118.802 49.9149C118.812 48.6596 118.39 47.4396 117.608 46.4632C116.826 45.4868 115.731 44.8146 114.512 44.5613C113.292 44.3081 112.024 44.4896 110.922 45.0747C109.821 45.6599 108.955 46.6125 108.473 47.7697C107.99 48.927 107.922 50.2173 108.278 51.4201C108.634 52.6229 109.393 53.6638 110.426 54.3648C111.459 55.0659 112.701 55.3837 113.94 55.264C115.179 55.1443 116.339 54.5945 117.221 53.7085C117.729 53.2194 118.131 52.6302 118.403 51.9776C118.675 51.3249 118.811 50.6228 118.802 49.9149Z" fill="white"/>
<path d="M145.931 58.1974V48.0406C145.934 47.1398 145.607 46.2696 145.012 45.5974C144.736 45.2617 144.389 44.9929 143.996 44.8108C143.603 44.6287 143.174 44.5379 142.742 44.5451C142.302 44.5245 141.863 44.6011 141.456 44.7696C141.049 44.9381 140.684 45.1945 140.386 45.5206C139.803 46.2254 139.501 47.1237 139.539 48.0406V58.1974H136.337V48.0406C136.347 47.1427 136.028 46.2727 135.441 45.5974C135.164 45.2603 134.815 44.9906 134.421 44.8084C134.026 44.6262 133.595 44.5362 133.161 44.5451C132.725 44.5262 132.289 44.6037 131.885 44.7722C131.482 44.9407 131.119 45.1961 130.823 45.5206C130.233 46.2214 129.927 47.1218 129.968 48.0406V58.1974H126.766V41.578H129.968V42.6212C131.021 41.7575 132.341 41.294 133.699 41.3115C134.531 41.3016 135.353 41.4904 136.099 41.8624C136.845 42.2345 137.493 42.7792 137.99 43.4522C138.578 42.7603 139.312 42.2093 140.137 41.839C140.963 41.4687 141.86 41.2885 142.764 41.3115C143.617 41.2966 144.463 41.4676 145.245 41.8129C146.026 42.1582 146.725 42.6696 147.292 43.3122C148.501 44.5805 149.169 46.2767 149.151 48.0361V58.1974H145.931Z" fill="white"/>
<path d="M172.28 49.9148C172.292 51.033 172.082 52.1425 171.663 53.1778C171.244 54.2132 170.623 55.1536 169.839 55.9438C169.098 56.7524 168.196 57.395 167.193 57.8299C166.19 58.2648 165.108 58.4823 164.016 58.4684C161.927 58.4936 159.913 57.6814 158.418 56.2103V58.1793H155.22V36.2083H158.418V43.6012C159.181 42.8535 160.085 42.2666 161.076 41.8748C162.067 41.4829 163.126 41.2938 164.19 41.3186C165.255 41.3434 166.303 41.5816 167.275 42.0192C168.247 42.4568 169.123 43.0852 169.852 43.8677C171.423 45.48 172.296 47.6546 172.28 49.9148ZM169.073 49.9148C169.082 48.6594 168.659 47.4397 167.876 46.4639C167.092 45.4881 165.997 44.8169 164.778 44.5647C163.558 44.3126 162.289 44.4953 161.188 45.0816C160.087 45.6679 159.223 46.6214 158.741 47.7792C158.26 48.9371 158.193 50.2275 158.55 51.43C158.908 52.6325 159.668 53.6726 160.702 54.3726C161.735 55.0725 162.978 55.389 164.217 55.2678C165.456 55.1467 166.615 54.5955 167.496 53.7084C168.002 53.2184 168.403 52.6289 168.675 51.9764C168.946 51.3239 169.081 50.6222 169.073 49.9148Z" fill="white"/>
<path d="M189.545 58.1975V56.2285C187.984 57.7155 185.903 58.5201 183.757 58.4668C181.61 58.4135 179.571 57.5067 178.084 55.944C176.537 54.3206 175.674 52.1569 175.674 49.9059C175.674 47.6549 176.537 45.4912 178.084 43.8678C178.816 43.0861 179.695 42.4586 180.669 42.0217C181.643 41.5848 182.694 41.347 183.759 41.3222C184.825 41.2974 185.886 41.4861 186.879 41.8773C187.872 42.2685 188.778 42.8545 189.545 43.6013V41.5781H192.748V58.1975H189.545ZM189.545 49.9149C189.555 48.6595 189.132 47.4398 188.348 46.464C187.565 45.4882 186.47 44.817 185.25 44.5649C184.031 44.3128 182.762 44.4954 181.661 45.0817C180.56 45.668 179.695 46.6215 179.214 47.7793C178.733 48.9372 178.665 50.2276 179.023 51.4301C179.38 52.6327 180.141 53.6727 181.174 54.3727C182.208 55.0727 183.45 55.3891 184.689 55.2679C185.929 55.1468 187.088 54.5956 187.969 53.7085C188.475 53.2185 188.876 52.6291 189.147 51.9765C189.418 51.324 189.554 50.6223 189.545 49.9149Z" fill="white"/>
<path d="M206.291 44.5451C205.183 44.5302 204.111 44.9421 203.294 45.6968C202.884 46.0522 202.558 46.4951 202.338 46.9935C202.119 47.4918 202.013 48.0331 202.026 48.5781V58.1975H198.828V41.578H202.026V43.0277C202.587 42.4684 203.253 42.0283 203.986 41.7335C204.719 41.4387 205.502 41.2952 206.291 41.3116V44.5451Z" fill="white"/>
<path d="M222.895 58.1974V56.2284C221.332 57.7146 219.251 58.5185 217.104 58.4652C214.957 58.412 212.917 57.5058 211.429 55.9439C209.889 54.3173 209.029 52.1548 209.029 49.9058C209.029 47.6567 209.889 45.4942 211.429 43.8677C212.161 43.0853 213.04 42.4573 214.015 42.0199C214.989 41.5826 216.04 41.3446 217.107 41.3198C218.173 41.295 219.234 41.4839 220.228 41.8755C221.221 42.2672 222.128 42.8537 222.895 43.6012V36.2083H226.097V58.1974H222.895ZM222.895 49.9148C222.905 48.6595 222.483 47.4395 221.701 46.4631C220.918 45.4867 219.824 44.8145 218.605 44.5612C217.385 44.308 216.117 44.4894 215.015 45.0746C213.914 45.6598 213.048 46.6123 212.566 47.7696C212.083 48.9269 212.014 50.2172 212.371 51.42C212.727 52.6228 213.486 53.6637 214.519 54.3647C215.552 55.0658 216.794 55.3836 218.033 55.2639C219.272 55.1442 220.432 54.5944 221.314 53.7084C221.821 53.2186 222.222 52.6293 222.494 51.9768C222.766 51.3243 222.903 50.6225 222.895 49.9148Z" fill="white"/>
<path d="M232.17 39.3967V36.2083H235.368V39.3967H232.17ZM232.17 58.1974V41.578H235.368V58.1974H232.17Z" fill="white"/>
<path d="M253.973 58.1981V56.2291C252.41 57.7153 250.329 58.5192 248.182 58.4659C246.035 58.4126 243.995 57.5065 242.507 55.9446C240.964 54.3196 240.102 52.1565 240.102 49.9064C240.102 47.6564 240.964 45.4933 242.507 43.8683C243.239 43.086 244.118 42.458 245.093 42.0206C246.067 41.5833 247.118 41.3453 248.185 41.3205C249.251 41.2957 250.312 41.4846 251.306 41.8762C252.299 42.2678 253.206 42.8544 253.973 43.6019V41.5787H257.175V58.1981H253.973ZM253.973 49.9155C253.982 48.6601 253.559 47.4404 252.776 46.4646C251.992 45.4888 250.897 44.8176 249.678 44.5654C248.458 44.3133 247.189 44.496 246.088 45.0823C244.988 45.6686 244.123 46.6221 243.641 47.7799C243.16 48.9378 243.093 50.2282 243.45 51.4307C243.808 52.6332 244.568 53.6733 245.602 54.3733C246.635 55.0732 247.878 55.3897 249.117 55.2685C250.356 55.1474 251.515 54.5962 252.396 53.7091C252.902 53.2185 253.302 52.6289 253.573 51.9765C253.844 51.3241 253.98 50.6228 253.973 49.9155Z" fill="white"/>
</svg>
