<?xml version="1.0" encoding="utf-8"?>
<!-- Generator: Adobe Illustrator 22.0.1, SVG Export Plug-In . SVG Version: 6.00 Build 0)  -->
<svg version="1.1" id="Livello_1" xmlns="http://www.w3.org/2000/svg" xmlns:xlink="http://www.w3.org/1999/xlink" x="0px" y="0px"
	 viewBox="0 0 566.9 140" style="enable-background:new 0 0 566.9 140;" xml:space="preserve">
<style type="text/css">
	.st0{fill:#A32B87;}
	.st1{fill:#F6A01C;}
	.st2{fill:#E30F30;}
	.st3{fill:#ED6C27;}
	.st4{fill:#FBDD3F;}
	.st5{fill:#D66115;}
	.st6{fill:#0BAED9;}
	.st7{fill:#00963E;}
	.st8{fill:#2C5336;}
	.st9{fill:#0B6087;}
	.st10{fill:#096839;}
</style>
<g>
	<g>
		<g>
			<g>
				<path class="st0" d="M1,99.6c0.3,0.4,0.6,0.7,0.9,1c1.8,1.5,4.4,1.8,6.6,0.5c0.8-0.5,1.6-1,2.4-1.4c2.4-1.6,6.6-4.4,10.4-6.6
					c6.8-4.9,11.6-9.9,11.7-16.4c-6.2,0.8-11.9,3.5-12.9,4c-1.7,0.8-3.6,1.9-5.5,3.1C11.5,86,7.9,88.2,4.8,90
					c-1.4,0.9-2.2,1.5-2.4,1.6C-0.2,93.4-0.8,97,1,99.6z"/>
				<path class="st1" d="M132.7,89.2c-0.3-0.1-7.4-2.8-14.6-6.3c-6.6-3.2-11.2-6-14-8.7c-2.1,0.8-3.9,2-5.4,3.7
					c-4.2,4.8-4.6,12.2-1.1,23.2c-4.2-2.3-7.6-4.2-7.6-4.2c-0.2-0.1-0.4-0.2-0.6-0.3c-6.9-2.9-11.4-0.4-13.5,1.3
					c-0.3,0.2-0.5,0.5-0.8,0.7c0.6,1.6,1.1,3.1,1.5,4.6c1.9,6.6,3.7,16.6,4.9,24.3c-0.2-1.7-0.3-3.5-0.4-5.3
					c-0.6-10.9,1.2-14.8,2-15.4c0.1,0,0.6,0,1.6,0.4c7.5,4.1,19.4,10.7,21,11.7c1.6,1.1,3.8,1.3,5.7,0.4c2.8-1.4,4-4.8,2.7-7.6
					c-10.2-21.4-7.3-25.7-6.9-26.1c0.6-0.7,2.8-1.3,7-0.8c4.5,0.5,10.4,2,18.7,4.7c2.1,0.7,4.4,0.1,5.9-1.5
					C137.2,89.4,134.8,90,132.7,89.2z"/>
				<path class="st2" d="M75.1,98.7c-1.9-4.7-5-9.4-10.5-10.6c-4.9-1-9.7,1.1-15.4,6.2c0.1-2.5,0.1-5.2-0.3-7.8
					c-0.5-3.8-2.5-6.8-5.7-8.5c-2.1-1.2-4.6-1.6-7.1-1.6c-1.1,0-2.1,0.1-3.2,0.2C32.8,83,28,88.1,21.2,93c1.4-0.8,2.7-1.6,3.9-2.2
					c5.3-2.7,10.7-3.5,12.4-2.9c1.3,11.1-3.6,23.3-3.6,23.4c-1.1,2.6-0.1,5.6,2.4,7.1c2.4,1.4,5.5,0.9,7.3-1.3
					c5.7-6.9,9.7-11.3,12.9-14.2c3.7-3.3,5.4-3.7,5.7-3.7c0.3,0.2,1.7,1.5,3.4,7.1c1.7,5.9,3.4,15.4,4.5,22.6
					c-0.2-1.8-0.4-3.8-0.5-5.8C69,110.8,70.7,102.9,75.1,98.7z"/>
				<path class="st3" d="M75.1,98.7c-4.4,4.2-6.1,12.1-5.4,24.6c0.1,2,0.3,4,0.5,5.8c0.9,5.5,0.7,5.5,0.8,6.1c0,0.1,0,0.2,0,0.2
					c0.6,3.1,3.6,5.1,6.7,4.5s5.1-3.6,4.5-6.7c0-0.1-0.1,0-0.7-5.6c-1.2-7.6-3-17.7-4.9-24.3C76.2,101.8,75.7,100.2,75.1,98.7z"/>
				<path class="st4" d="M96.6,45.4c1.8,3.2,5,5.5,9.1,6.6c1.8,0.5,5.3,1,9.3,1.5c-4,2.2-7.9,4.4-10.8,6.3c-2.9,1.8-4.3,4.7-4,7.8
					c0.3,2.3,1.5,4.5,3.8,6.7c2.2-0.8,4.6-1.2,7.4-1.2c6.7,0,15.2,2.2,25,5.4c3,1,4.6,4.2,3.6,7.2c-0.2,0.7-0.6,1.4-1.1,2
					c0.5-0.5,0.8-1.1,1.1-1.8c1.1-3-0.4-6.2-3.3-7.3c-9.4-3.5-18.8-8.1-23.2-11.1c9.1-5.4,23.1-12.4,23.2-12.5
					c2.3-1.2,3.6-3.7,3-6.2c-0.5-2.5-2.7-4.4-5.2-4.6c-2-0.1-22-2.2-26-3.2c-0.6-0.2-1.8-0.6-2.1-1.2c-0.4-0.9-0.2-3,1.4-6.2
					c0-0.1,0.1-0.2,0.1-0.2l6.4-14.4c-1.4,2.3-5.1,8.2-9.3,14.6C101.6,38.7,98.8,42.5,96.6,45.4z"/>
				<path class="st5" d="M136.4,78.5c-9.8-3.2-18.3-5.4-25-5.4c-2.8,0-5.2,0.4-7.4,1.2c2.9,2.7,7.4,5.5,14,8.7
					c7.3,3.5,14.4,6.2,14.6,6.3c2.2,0.8,4.5,0.2,6-1.3c0.1-0.1,0.1-0.1,0.2-0.2l0,0c0.5-0.6,0.9-1.2,1.1-2
					C141,82.7,139.4,79.5,136.4,78.5z"/>
				<path class="st6" d="M33,76.7c0-0.6,0-1.1-0.1-1.7c-0.4-3.7-2.6-7.8-6.8-12.5c4.5,0.2,8.6,0.1,11-0.8c3.1-1.1,5.4-3.3,6.8-6.5
					c0.8-1.7,1.2-3.8,1.4-6.1c-2-2.4-4.4-5.6-7.3-9.8c-4.9-7.1-8.8-13.7-9-14c-1.6-2.7-0.7-6.2,2-7.8c0.9-0.5,1.8-0.8,2.8-0.8
					c0,0,0,0-0.1,0c-0.7,0-1.5,0.1-2.2,0.4c-2.9,1.2-4.3,4.5-3.1,7.5c0,0.1,2.6,6.3,4.2,13.1C35.2,48.5,33.2,51,33.2,51
					c-2.1,0.6-12,0-23.5-1.8c-2.6-0.4-5.2,1-6.2,3.5S3.4,58,5.6,59.5c6.6,4.5,15.5,13.4,15.8,16.7c0.2,1.9-2.9,4.7-7,7.6
					c1.9-1.2,3.8-2.2,5.5-3.1C21,80.2,26.8,77.5,33,76.7z"/>
				<path class="st7" d="M39,20.2c0.1,0.2,2.4,5.8,4.2,12.6c1.7,6.6,2.4,11.9,2.1,16.3c4.6,5.5,7.2,7.2,9,8c1.7,0.7,3.6,0.6,5.2-0.3
					c2.8-1.5,4.3-3.3,9.4-27.4c0.2-1,0.4-2,0.6-3.1c0.3,0.8,0.6,1.5,0.9,2.3c2.5,6.1,4.6,11.1,6.2,14.7c3.2,7,4.7,9.1,7.2,10
					c1.6,0.6,3.4,0.4,5-0.4c1.6-0.9,3.7-2.6,7.7-7.6c-0.2-0.3-0.4-0.7-0.5-1c-2-4.5-1.5-9.8,1.6-16l6.7-14.9
					c-5.8,9.4-12.7,19.7-17.1,25.4c-3.5-7.7-9.3-22.2-14.1-35.1c-0.8-2.2-3-3.7-5.3-3.7c-0.2,0-0.3,0-0.5,0
					c-2.6,0.2-4.6,2.1-5.1,4.7c-2.4,13.4-5.6,28.7-7.7,37.3c-4-4.8-9.7-13-15.5-22.6c-1.1-1.8-3-2.8-5-2.8C36,16.7,38.1,18,39,20.2z
					"/>
				<path class="st8" d="M96,44.3c0.2,0.3,0.3,0.7,0.5,1c2.2-2.8,5-6.7,8.6-12c4.2-6.3,7.9-12.3,9.3-14.6l0.6-1.3
					c1.3-2.9,0-6.2-2.9-7.5c-0.8-0.3-1.6-0.5-2.3-0.5c-1.2,0-2.4,0.4-3.4,1.1c-0.5,0.4-0.9,0.9-1.2,1.4s-0.6,1-0.9,1.5l-6.7,14.9
					C94.6,34.5,94,39.9,96,44.3z"/>
				<path class="st9" d="M31,17.5c-2.7,1.6-3.6,5.1-2,7.8c0.2,0.3,4.1,6.9,9,14c2.9,4.2,5.3,7.4,7.3,9.8c0.3-4.3-0.4-9.7-2.1-16.3
					C41.4,26,39.1,20.4,39,20.2c-0.9-2.2-3-3.5-5.2-3.5C32.9,16.7,31.9,17,31,17.5z"/>
			</g>
		</g>
	</g>
	<g>
		<g>
			<path class="st10" d="M247.3,83.7h-15.2v-26c0-2.3-1.8-4.1-4.1-4.1c-2.3,0-4.1,1.8-4.1,4.1v29.4c0,2.3,1.8,4.1,4.1,4.1h19.3
				c2.1,0,3.7-1.7,3.7-3.7C251,85.4,249.4,83.7,247.3,83.7z"/>
			<path class="st10" d="M274.1,53.2c-11.5,0-19.9,8.7-19.9,19.3v0.1c0,10.6,8.3,19.2,19.8,19.2s19.9-8.7,19.9-19.3v-0.1
				C293.9,61.8,285.6,53.2,274.1,53.2z M285.3,72.7c0,6.4-4.6,11.6-11.2,11.6s-11.3-5.3-11.3-11.7v-0.1c0-6.4,4.6-11.6,11.2-11.6
				S285.3,66.2,285.3,72.7L285.3,72.7z"/>
			<path class="st10" d="M335.5,53.7h-0.9c-1.7,0-2.8,0.7-3.7,2.1l-10,16.2L311,55.8c-0.7-1.2-2-2.1-3.7-2.1h-0.9
				c-2.3,0-4.1,1.8-4.1,4.1v29.8c0,2.2,1.8,4,4,4s4.1-1.8,4.1-4V69l7.1,10.9c0.9,1.3,1.9,2.1,3.4,2.1s2.6-0.8,3.4-2.1l7.2-11.1v18.6
				c0,2.2,1.8,4.1,4.1,4.1c2.3,0,4.1-1.8,4.1-4.1V57.8C339.6,55.5,337.8,53.7,335.5,53.7z"/>
			<path class="st10" d="M374.3,71.7c2.7-1.5,4.9-3.8,4.9-8.1v-0.1c0-2.6-0.9-4.6-2.6-6.3c-2.1-2.1-5.5-3.3-9.8-3.3h-13.2
				c-2.3,0-4.1,1.8-4.1,4.1v29.1c0,2.3,1.8,4.1,4.1,4.1h13.7c8.4,0,14-3.4,14-10.2v-0.1C381.3,75.9,378.7,73.3,374.3,71.7z
				 M357.6,61.1h8.1c3.5,0,5.4,1.4,5.4,3.8V65c0,2.8-2.3,3.9-5.9,3.9h-7.6V61.1z M373.2,80c0,2.8-2.2,4.1-5.8,4.1h-9.8v-8.3h9.5
				C371.3,75.8,373.2,77.3,373.2,80L373.2,80L373.2,80z"/>
			<path class="st10" d="M410.1,56.5c-0.9-2-2.5-3.3-4.7-3.3h-0.5c-2.2,0-3.9,1.2-4.8,3.3l-13,29.4c-0.3,0.6-0.5,1.2-0.5,1.8
				c0,2.1,1.7,3.8,3.8,3.8c1.7,0,3.1-1,3.8-2.6l2.6-6.1h16.4l2.5,5.9c0.7,1.7,2,2.8,3.9,2.8c2.2,0,3.9-1.8,3.9-3.9
				c0-0.5-0.2-1.1-0.4-1.7L410.1,56.5z M399.8,75.6l5.2-12.3l5.2,12.3H399.8z"/>
			<path class="st10" d="M448.2,53.9h-13c-2.3,0-4.1,1.8-4.1,4.1v29.4c0,2.3,1.8,4.1,4.1,4.1c2.3,0,4.1-1.8,4.1-4.1v-8.2h6.6l8,10.1
				c1,1.2,2.2,2.1,4.1,2.1c2,0,3.9-1.5,3.9-3.8c0-1.3-0.5-2.1-1.3-3.1l-5.7-6.9c4.5-1.9,7.5-5.5,7.5-11.4v-0.1
				c0-3.5-1.1-6.5-3.2-8.5C456.6,55.2,452.9,53.9,448.2,53.9z M453.9,66.7c0,3.1-2.3,5.3-6.3,5.3h-8.3V61.3h8.2c4,0,6.5,1.8,6.5,5.3
				v0.1H453.9z"/>
			<path class="st10" d="M485.3,53.9h-10.5c-2.3,0-4.1,1.8-4.1,4.1v29.1c0,2.3,1.8,4.1,4.1,4.1h10.5c11.7,0,19.8-8.2,19.8-18.7v-0.1
				C505.1,61.9,497,53.9,485.3,53.9z M496.5,72.7c0,6.6-4.5,11.1-11.3,11.1h-6.3V61.3h6.3C491.9,61.3,496.5,65.9,496.5,72.7
				L496.5,72.7z"/>
			<path class="st10" d="M518,53.6c-2.3,0-4.1,1.8-4.1,4.1v29.8c0,2.3,1.8,4.1,4.1,4.1s4.1-1.8,4.1-4.1V57.7
				C522.1,55.4,520.3,53.6,518,53.6z"/>
			<path class="st10" d="M566.5,85.9l-13-29.4c-0.9-2-2.5-3.3-4.7-3.3h-0.5c-2.2,0-3.9,1.2-4.8,3.3l-13,29.4
				c-0.3,0.6-0.5,1.2-0.5,1.8c0,2.1,1.7,3.8,3.8,3.8c1.7,0,3.1-1,3.8-2.6l2.6-6.1h16.4l2.5,5.9c0.7,1.7,2,2.8,3.9,2.8
				c2.2,0,3.9-1.8,3.9-3.9C566.9,87.1,566.7,86.5,566.5,85.9z M543.2,75.6l5.2-12.3l5.2,12.3H543.2z"/>
		</g>
		<g>
			<path class="st10" d="M171.6,60.4c1.1,0,2-0.4,2.8-1.2c0.9-0.9,1.1-1.9,0.5-3.1c-0.8-1.7-1.8-2.5-3.1-2.5c-1.1,0-2,0.5-2.7,1.4
				c-0.8,1-0.9,2.1-0.3,3.3C169.5,59.7,170.4,60.4,171.6,60.4z"/>
			<path class="st10" d="M209.8,89.3c-0.7,0.1-1.2,0.1-1.8-0.5c-0.9-0.9-1.1-2.2-1-3.3c0.3-3.2,1.2-6.5,2-9.6
				c0.4-1.7,0.9-3.5,0.6-5.2c-0.4-2.8-3.4-4.7-6.2-4.7c-3.5,0-7.3,4.3-11.5,11.2c0.4-2.5,0.8-4.9,1-7.4c0.2-1.7,0.4-3.2-1.8-4
				c-0.7-0.3-1.4-0.4-2-0.4c-1.1,0.1-1.9,0.9-2.3,1.9c-1.9,4.5-4.4,8.6-7.1,12.6c-2.1,3.1-4,6.5-7.1,8.7c-1,0.7-2.5,1.5-3.7,0.9
				c-0.7-0.4-1.1-1.1-1.2-1.9c-0.1-1.2,0.2-2.4,0.5-3.5c0.4-1.6,0.9-3.2,1.4-4.8c1-3.1,2.2-6.2,2.4-9.5c0.1-0.9,0.1-2.1-0.4-2.8
				c-0.5-0.6-1.4-0.8-2.2-0.9c-0.7-0.1-1.4-0.1-2,0.2c-0.8,0.4-1.4,1.4-1.8,2.2c-2.1,3.5-4.2,6.9-6.4,10.4c-1.3,2.1-2.6,4.2-4.2,6.1
				c-1.6,1.9-3.5,3.5-5.8,4.5c-0.8,0.3-1.6,0.6-2.3,0.9c-0.1,0-0.2,0.1-0.3,0.2c-0.2,0.3,0.3,0.5,0.6,0.5c1.5,0,3-0.4,4.3-1.1
				c2.5-1.3,4.4-3.4,6.2-5.5c2.4-3,4.5-6.2,6.5-9.4c-0.5,3.4-1.1,6.9-0.6,10.3c0.2,1.5,0.6,3,1.6,4.2c2,2.3,5.2,2.2,7.7,0.9
				c2-1,3.5-2.7,4.9-4.6c3.4-4.7,6.6-10.1,9.8-15l-2.2,8.6c-0.5,2-1.2,4.2-1.7,6.1c-0.2,1-1.4,4.6,0.6,5.2c2.5,0.8,3.8,0.9,4.7-1.9
				c1.5-4.7,3.6-9,6.4-13c1.2-1.7,2.4-3.5,3.8-5c0.8-0.9,4-3.9,4.9-1.7c0.4,1.1-1,4.7-1.5,6.3c-0.9,3.3-1.6,6.7-1.3,10.2
				c0.4,4.4,4.5,6.9,8.7,5C211.9,89.8,211,89.1,209.8,89.3z"/>
		</g>
	</g>
</g>
</svg>
