<svg width="541" height="55" viewBox="0 0 541 55" fill="none" xmlns="http://www.w3.org/2000/svg">
<path d="M366.473 18.7561C388.295 -0.639005 415.184 25.2495 415.184 25.2495L416.408 26.4378C433.967 44.0928 458.238 55 485 55C538.565 55 582 11.3716 582 -42.5273L582 -382.473C582 -409.38 571.152 -433.783 553.592 -451.438C536.033 -469.093 511.762 -480 485 -480C458.238 -480 432.912 -468.584 415.268 -450.25C415.268 -450.25 415.226 -450.207 415.099 -450.08C412.82 -447.958 386.945 -424.87 366.008 -444.308C364.235 -445.921 362.505 -447.83 360.816 -450.122C360.816 -450.165 360.774 -450.207 360.732 -450.25C360.352 -450.674 359.972 -451.056 359.592 -451.438C342.075 -469.093 317.804 -480 291 -480C264.196 -480 241.149 -469.602 223.716 -452.711C219.875 -448.976 215.823 -445.454 211.222 -442.78C201.134 -436.881 185.262 -431.618 171.628 -444.775C170.953 -445.454 170.235 -446.175 169.56 -446.939L160.274 -456.403C143.305 -471.088 121.229 -479.958 97.0422 -480C43.0549 -480 5.45062e-07 -434.292 1.19236e-06 -380.011L5.21681e-06 -42.5273C5.53818e-06 -15.5779 10.8482 8.82514 28.4078 26.4378C45.9674 44.0928 70.2385 55 97 55C123.762 55 149.679 43.3715 167.238 24.6554C168.8 22.6182 170.362 20.8782 171.966 19.3503C191.932 0.719151 216.456 20.8782 220.719 24.6554C220.719 24.6978 220.762 24.6977 220.762 24.6977C220.93 24.8675 221.099 24.9948 221.184 25.1221C221.521 25.589 221.943 26.0134 222.408 26.4378C239.967 44.0928 264.238 55 291 55C317.762 55 343.088 43.5836 360.648 25.2495C362.505 22.7455 364.404 20.6235 366.346 18.8834C366.388 18.841 366.43 18.7986 366.473 18.7561Z" fill="#52AE32"/>
</svg>
